<svg fill="#000000" xmlns="http://www.w3.org/2000/svg"  viewBox="0 0 64 64" width="128px" height="128px"><path d="M 32 1.835938 C 24.652344 1.835938 17.308594 3.050781 10.316406 5.484375 L 10.015625 5.585938 C 8.808594 6.007813 8 7.144531 8 8.421875 L 8 28.667969 C 8 39.859375 13.597656 50.191406 22.972656 56.308594 L 25.988281 58.277344 C 27.816406 59.464844 29.90625 60.0625 32 60.0625 C 34.09375 60.0625 36.183594 59.464844 38.011719 58.277344 L 41.027344 56.308594 C 50.402344 50.191406 56 39.859375 56 28.667969 L 56 8.421875 C 56 7.144531 55.191406 6.007813 53.984375 5.589844 L 53.683594 5.484375 C 46.691406 3.050781 39.347656 1.835938 32 1.835938 Z M 32 3.835938 C 39.121094 3.835938 46.246094 5.011719 53.027344 7.371094 L 53.328125 7.476563 C 53.730469 7.617188 54 7.996094 54 8.421875 L 54 28.667969 C 54 39.179688 48.742188 48.886719 39.933594 54.628906 L 36.917969 56.597656 C 33.933594 58.546875 30.070313 58.546875 27.082031 56.597656 L 24.066406 54.628906 C 15.257813 48.886719 10 39.179688 10 28.667969 L 10 8.421875 C 10 7.996094 10.269531 7.617188 10.671875 7.476563 L 10.972656 7.375 C 17.753906 5.015625 24.878906 3.835938 32 3.835938 Z M 31.953125 5.820313 C 27.855469 5.820313 23.757813 6.207031 19.730469 6.96875 C 19.1875 7.070313 18.832031 7.59375 18.933594 8.136719 C 19.023438 8.617188 19.441406 8.953125 19.914063 8.953125 C 19.976563 8.953125 20.039063 8.949219 20.101563 8.9375 C 25.3125 7.949219 30.636719 7.617188 35.933594 7.9375 C 36.496094 7.964844 36.957031 7.554688 36.988281 7.003906 C 37.023438 6.453125 36.605469 5.976563 36.054688 5.945313 C 34.691406 5.859375 33.320313 5.816406 31.953125 5.820313 Z M 41.8125 6.550781 C 41.269531 6.476563 40.761719 6.84375 40.675781 7.390625 C 40.59375 7.941406 40.96875 8.449219 41.515625 8.53125 C 42.75 8.71875 43.988281 8.941406 45.203125 9.195313 C 45.269531 9.210938 45.339844 9.21875 45.40625 9.21875 C 45.871094 9.21875 46.285156 8.894531 46.386719 8.421875 C 46.5 7.882813 46.152344 7.351563 45.613281 7.234375 C 44.363281 6.972656 43.085938 6.742188 41.8125 6.550781 Z M 18.5 14 C 17.421875 14 15.941406 14.148438 14.8125 14.367188 C 14.269531 14.472656 13.914063 14.996094 14.019531 15.539063 C 14.125 16.082031 14.644531 16.4375 15.1875 16.328125 C 16.191406 16.136719 17.550781 16 18.5 16 C 24.707031 16 28.085938 21.328125 28.144531 21.421875 C 28.335938 21.730469 28.664063 21.902344 29 21.902344 C 29.179688 21.902344 29.355469 21.851563 29.519531 21.753906 C 29.992188 21.46875 30.140625 20.851563 29.855469 20.378906 C 29.695313 20.121094 25.875 14 18.5 14 Z M 47.5 14 C 40.125 14 36.304688 20.121094 36.144531 20.378906 C 35.859375 20.851563 36.007813 21.46875 36.480469 21.753906 C 36.640625 21.855469 36.820313 21.902344 37 21.902344 C 37.335938 21.902344 37.664063 21.730469 37.855469 21.421875 C 37.886719 21.367188 41.234375 16 47.5 16 C 48.445313 16 49.804688 16.136719 50.808594 16.328125 C 51.355469 16.4375 51.875 16.082031 51.980469 15.539063 C 52.085938 14.996094 51.730469 14.472656 51.1875 14.367188 C 50.058594 14.148438 48.574219 14 47.5 14 Z M 21 20 C 17.503906 20 15.261719 23.304688 15.167969 23.445313 C 14.902344 23.839844 14.957031 24.371094 15.292969 24.707031 C 15.386719 24.800781 17.625 27 21 27 C 24.375 27 26.613281 24.800781 26.707031 24.707031 C 27.042969 24.371094 27.097656 23.84375 26.832031 23.445313 C 26.738281 23.304688 24.496094 20 21 20 Z M 43 20 C 39.503906 20 37.261719 23.304688 37.167969 23.445313 C 36.902344 23.839844 36.957031 24.371094 37.292969 24.707031 C 37.386719 24.800781 39.625 27 43 27 C 46.375 27 48.613281 24.800781 48.707031 24.707031 C 49.042969 24.371094 49.097656 23.84375 48.832031 23.445313 C 48.738281 23.304688 46.496094 20 43 20 Z M 21 22 C 22.585938 22 23.882813 23.09375 24.589844 23.847656 C 23.855469 24.347656 22.589844 25 21 25 C 19.429688 25 18.160156 24.347656 17.417969 23.847656 C 18.125 23.089844 19.414063 22 21 22 Z M 43 22 C 44.585938 22 45.882813 23.09375 46.589844 23.847656 C 45.855469 24.347656 44.589844 25 43 25 C 41.429688 25 40.160156 24.347656 39.417969 23.847656 C 40.125 23.089844 41.414063 22 43 22 Z M 31.878906 22.011719 C 31.492188 22.058594 31.152344 22.328125 31.039063 22.726563 L 27.402344 35.449219 C 27.226563 36.058594 27.347656 36.695313 27.730469 37.203125 C 28.109375 37.710938 28.691406 38 29.328125 38 L 30.832031 38 L 28.722656 41.515625 C 28.542969 41.816406 28.214844 42 27.867188 42 L 23.65625 42 C 22.867188 42 22.09375 41.679688 21.535156 41.121094 L 15.707031 35.292969 C 15.316406 34.902344 14.683594 34.902344 14.292969 35.292969 C 13.902344 35.683594 13.902344 36.316406 14.292969 36.707031 L 20.121094 42.535156 C 21.066406 43.480469 22.320313 44 23.65625 44 L 27.867188 44 C 28.914063 44 29.902344 43.441406 30.4375 42.546875 L 32 39.941406 L 33.5625 42.546875 C 34.097656 43.441406 35.085938 44 36.132813 44 L 40.34375 44 C 41.679688 44 42.933594 43.480469 43.878906 42.535156 L 49.707031 36.707031 C 50.097656 36.316406 50.097656 35.683594 49.707031 35.292969 C 49.316406 34.902344 48.683594 34.902344 48.292969 35.292969 L 42.464844 41.121094 C 41.90625 41.679688 41.132813 42 40.34375 42 L 36.132813 42 C 35.785156 42 35.453125 41.816406 35.277344 41.515625 L 33.167969 38 L 34 38 C 34.550781 38 35 37.554688 35 37 C 35 36.445313 34.550781 36 34 36 L 29.328125 36 L 32.964844 23.273438 C 33.113281 22.742188 32.804688 22.1875 32.277344 22.035156 C 32.144531 22 32.007813 21.992188 31.878906 22.011719 Z M 31 46 C 30.449219 46 30 46.445313 30 47 C 30 47.554688 30.449219 48 31 48 L 33 48 C 33.550781 48 34 47.554688 34 47 C 34 46.445313 33.550781 46 33 46 Z M 31 50 C 30.449219 50 30 50.445313 30 51 C 30 51.554688 30.449219 52 31 52 L 33 52 C 33.550781 52 34 51.554688 34 51 C 34 50.445313 33.550781 50 33 50 Z M 31 54 C 30.449219 54 30 54.445313 30 55 C 30 55.554688 30.449219 56 31 56 L 33 56 C 33.550781 56 34 55.554688 34 55 C 34 54.445313 33.550781 54 33 54 Z"/></svg>